# xmcd
#
# Track frame offsets:
# 150
# 11727
# 25040
# 39400
# 51752
# 65330
# 76407
# 90835
# 101772
# 112570
# 124127
# 137502
# 146942
# 158355
# 167825
# 181640
# 191172
# 204250
# 213825
# 223197
# 236500
# 247137
# 256862
# 269302
#
# Disc length: 3748 seconds
#
#
# Revision: 0
# Processed by: cddbd v1.5.1PL0 Copyright (c) Steve Scherf et al.
# Submitted via: FreeRIP 2.92 
#
DISCID=400ea218
DTITLE=Lonesome Sundown - I'm A Mojo Man:  The Best of the Excello Singles
DYEAR=1995
DGENRE=Blues
TTITLE0=Lost Without Love
TTITLE1=Leave My Money Alone
TTITLE2=My Home Is My Prison
TTITLE3=Lonesome Whistler
TTITLE4=I've Got The Blues
TTITLE5=Don't Say A Word
TTITLE6=Lonely Lonely Me
TTITLE7=I'm A Mojo Man
TTITLE8=Don't Go
TTITLE9=I Stood By
TTITLE10=No Use To Worry
TTITLE11=You Know I Love You
TTITLE12=If You See My Baby
TTITLE13=Gonna Stick To You Baby
TTITLE14=Love Me Now
TTITLE15=Learn To Treat Me Better
TTITLE16=Lonesome, Lonely Blues
TTITLE17=I'm Glad She's Mine
TTITLE18=My Home Ain't Here
TTITLE19=I Woke Up Crying (Oh What A Dream)
TTITLE20=When I Had, I Didn't Need
TTITLE21=I'm A Samplin' Man
TTITLE22=I Wanta Know Why
TTITLE23=Guardian Angel
EXTD=
EXTT0=
EXTT1=
EXTT2=
EXTT3=
EXTT4=
EXTT5=
EXTT6=
EXTT7=
EXTT8=
EXTT9=
EXTT10=
EXTT11=
EXTT12=
EXTT13=
EXTT14=
EXTT15=
EXTT16=
EXTT17=
EXTT18=
EXTT19=
EXTT20=
EXTT21=
EXTT22=
EXTT23=
PLAYORDER=
